<svg width="24" height="24" viewBox="0 0 24 24" fill="none" xmlns="http://www.w3.org/2000/svg">
<rect x="0.5" y="0.5" width="23" height="23" rx="4.5" stroke="url(#paint0_linear_67_118)"/>
<rect x="0.5" y="0.5" width="23" height="23" rx="4.5" stroke="url(#paint1_linear_67_118)" style="mix-blend-mode:overlay"/>
<rect x="0.5" y="0.5" width="23" height="23" rx="4.5" stroke="#C1A875" style="mix-blend-mode:color"/>
<path d="M21 4.875H3C2.90054 4.875 2.80516 4.91451 2.73484 4.98484C2.66451 5.05516 2.625 5.15054 2.625 5.25V18C2.625 18.2984 2.74353 18.5845 2.9545 18.7955C3.16548 19.0065 3.45163 19.125 3.75 19.125H20.25C20.5484 19.125 20.8345 19.0065 21.0455 18.7955C21.2565 18.5845 21.375 18.2984 21.375 18V5.25C21.375 5.15054 21.3355 5.05516 21.2652 4.98484C21.1948 4.91451 21.0995 4.875 21 4.875ZM12 12.9909L3.96375 5.625H20.0363L12 12.9909ZM9.80906 12L3.375 17.8978V6.10219L9.80906 12ZM10.3641 12.5091L11.7469 13.7812C11.816 13.8445 11.9063 13.8796 12 13.8796C12.0937 13.8796 12.184 13.8445 12.2531 13.7812L13.6359 12.5137L20.0363 18.375H3.96375L10.3641 12.5091ZM14.1909 12L20.625 6.10219V17.8978L14.1909 12Z" fill="url(#paint2_linear_67_118)"/>
<path d="M21 4.875H3C2.90054 4.875 2.80516 4.91451 2.73484 4.98484C2.66451 5.05516 2.625 5.15054 2.625 5.25V18C2.625 18.2984 2.74353 18.5845 2.9545 18.7955C3.16548 19.0065 3.45163 19.125 3.75 19.125H20.25C20.5484 19.125 20.8345 19.0065 21.0455 18.7955C21.2565 18.5845 21.375 18.2984 21.375 18V5.25C21.375 5.15054 21.3355 5.05516 21.2652 4.98484C21.1948 4.91451 21.0995 4.875 21 4.875ZM12 12.9909L3.96375 5.625H20.0363L12 12.9909ZM9.80906 12L3.375 17.8978V6.10219L9.80906 12ZM10.3641 12.5091L11.7469 13.7812C11.816 13.8445 11.9063 13.8796 12 13.8796C12.0937 13.8796 12.184 13.8445 12.2531 13.7812L13.6359 12.5137L20.0363 18.375H3.96375L10.3641 12.5091ZM14.1909 12L20.625 6.10219V17.8978L14.1909 12Z" fill="url(#paint3_linear_67_118)" style="mix-blend-mode:overlay"/>
<path d="M21 4.875H3C2.90054 4.875 2.80516 4.91451 2.73484 4.98484C2.66451 5.05516 2.625 5.15054 2.625 5.25V18C2.625 18.2984 2.74353 18.5845 2.9545 18.7955C3.16548 19.0065 3.45163 19.125 3.75 19.125H20.25C20.5484 19.125 20.8345 19.0065 21.0455 18.7955C21.2565 18.5845 21.375 18.2984 21.375 18V5.25C21.375 5.15054 21.3355 5.05516 21.2652 4.98484C21.1948 4.91451 21.0995 4.875 21 4.875ZM12 12.9909L3.96375 5.625H20.0363L12 12.9909ZM9.80906 12L3.375 17.8978V6.10219L9.80906 12ZM10.3641 12.5091L11.7469 13.7812C11.816 13.8445 11.9063 13.8796 12 13.8796C12.0937 13.8796 12.184 13.8445 12.2531 13.7812L13.6359 12.5137L20.0363 18.375H3.96375L10.3641 12.5091ZM14.1909 12L20.625 6.10219V17.8978L14.1909 12Z" fill="#C1A875" style="mix-blend-mode:color"/>
<defs>
<linearGradient id="paint0_linear_67_118" x1="1.33065" y1="15.0105" x2="23.7137" y2="9.76721" gradientUnits="userSpaceOnUse">
<stop stop-color="#576265"/>
<stop offset="0.172016" stop-color="#9EA1A1"/>
<stop offset="0.45741" stop-color="#848B8A"/>
<stop offset="0.553567" stop-color="#576265"/>
<stop offset="0.823421" stop-color="#576265"/>
<stop offset="0.925155" stop-color="#757A7B"/>
<stop offset="1" stop-color="#576265"/>
</linearGradient>
<linearGradient id="paint1_linear_67_118" x1="9.58065" y1="12" x2="4.79369" y2="-0.492629" gradientUnits="userSpaceOnUse">
<stop stop-color="white" stop-opacity="0"/>
<stop offset="1" stop-color="white"/>
</linearGradient>
<linearGradient id="paint2_linear_67_118" x1="3.66457" y1="13.7875" x2="20.5105" y2="8.59511" gradientUnits="userSpaceOnUse">
<stop stop-color="#576265"/>
<stop offset="0.172016" stop-color="#9EA1A1"/>
<stop offset="0.45741" stop-color="#848B8A"/>
<stop offset="0.553567" stop-color="#576265"/>
<stop offset="0.823421" stop-color="#576265"/>
<stop offset="0.925155" stop-color="#757A7B"/>
<stop offset="1" stop-color="#576265"/>
</linearGradient>
<linearGradient id="paint3_linear_67_118" x1="10.1099" y1="12" x2="7.82627" y2="4.15843" gradientUnits="userSpaceOnUse">
<stop stop-color="white" stop-opacity="0"/>
<stop offset="1" stop-color="white"/>
</linearGradient>
</defs>
</svg>
