<svg width="24" height="24" viewBox="0 0 24 24" fill="none" xmlns="http://www.w3.org/2000/svg">
<g clip-path="url(#clip0_67_120)">
<path d="M5.25 21.75H18.75" stroke="url(#paint0_linear_67_120)" stroke-linecap="round" stroke-linejoin="round"/>
<path d="M5.25 21.75H18.75" stroke="url(#paint1_linear_67_120)" stroke-linecap="round" stroke-linejoin="round" style="mix-blend-mode:overlay"/>
<path d="M5.25 21.75H18.75" stroke="#C1A875" stroke-linecap="round" stroke-linejoin="round" style="mix-blend-mode:color"/>
<path d="M12 12.75C13.6569 12.75 15 11.4069 15 9.75C15 8.09315 13.6569 6.75 12 6.75C10.3431 6.75 9 8.09315 9 9.75C9 11.4069 10.3431 12.75 12 12.75Z" stroke="url(#paint2_linear_67_120)" stroke-linecap="round" stroke-linejoin="round"/>
<path d="M12 12.75C13.6569 12.75 15 11.4069 15 9.75C15 8.09315 13.6569 6.75 12 6.75C10.3431 6.75 9 8.09315 9 9.75C9 11.4069 10.3431 12.75 12 12.75Z" stroke="url(#paint3_linear_67_120)" stroke-linecap="round" stroke-linejoin="round" style="mix-blend-mode:overlay"/>
<path d="M12 12.75C13.6569 12.75 15 11.4069 15 9.75C15 8.09315 13.6569 6.75 12 6.75C10.3431 6.75 9 8.09315 9 9.75C9 11.4069 10.3431 12.75 12 12.75Z" stroke="#C1A875" stroke-linecap="round" stroke-linejoin="round" style="mix-blend-mode:color"/>
<path d="M19.5 9.75C19.5 16.5 12 21.75 12 21.75C12 21.75 4.5 16.5 4.5 9.75C4.5 7.76088 5.29018 5.85322 6.6967 4.4467C8.10322 3.04018 10.0109 2.25 12 2.25C13.9891 2.25 15.8968 3.04018 17.3033 4.4467C18.7098 5.85322 19.5 7.76088 19.5 9.75Z" stroke="url(#paint4_linear_67_120)" stroke-linecap="round" stroke-linejoin="round"/>
<path d="M19.5 9.75C19.5 16.5 12 21.75 12 21.75C12 21.75 4.5 16.5 4.5 9.75C4.5 7.76088 5.29018 5.85322 6.6967 4.4467C8.10322 3.04018 10.0109 2.25 12 2.25C13.9891 2.25 15.8968 3.04018 17.3033 4.4467C18.7098 5.85322 19.5 7.76088 19.5 9.75Z" stroke="url(#paint5_linear_67_120)" stroke-linecap="round" stroke-linejoin="round" style="mix-blend-mode:overlay"/>
<path d="M19.5 9.75C19.5 16.5 12 21.75 12 21.75C12 21.75 4.5 16.5 4.5 9.75C4.5 7.76088 5.29018 5.85322 6.6967 4.4467C8.10322 3.04018 10.0109 2.25 12 2.25C13.9891 2.25 15.8968 3.04018 17.3033 4.4467C18.7098 5.85322 19.5 7.76088 19.5 9.75Z" stroke="#C1A875" stroke-linecap="round" stroke-linejoin="round" style="mix-blend-mode:color"/>
</g>
<rect x="0.5" y="0.5" width="23" height="23" rx="4.5" stroke="url(#paint6_linear_67_120)"/>
<rect x="0.5" y="0.5" width="23" height="23" rx="4.5" stroke="url(#paint7_linear_67_120)" style="mix-blend-mode:overlay"/>
<rect x="0.5" y="0.5" width="23" height="23" rx="4.5" stroke="#C1A875" style="mix-blend-mode:color"/>
<defs>
<linearGradient id="paint0_linear_67_120" x1="5.99849" y1="22.3754" x2="7.20578" y2="18.5575" gradientUnits="userSpaceOnUse">
<stop stop-color="#576265"/>
<stop offset="0.172016" stop-color="#9EA1A1"/>
<stop offset="0.45741" stop-color="#848B8A"/>
<stop offset="0.553567" stop-color="#576265"/>
<stop offset="0.823421" stop-color="#576265"/>
<stop offset="0.925155" stop-color="#757A7B"/>
<stop offset="1" stop-color="#576265"/>
</linearGradient>
<linearGradient id="paint1_linear_67_120" x1="10.6391" y1="22.25" x2="10.6222" y2="21.6535" gradientUnits="userSpaceOnUse">
<stop stop-color="white" stop-opacity="0"/>
<stop offset="1" stop-color="white"/>
</linearGradient>
<linearGradient id="paint2_linear_67_120" x1="9.33266" y1="10.5026" x2="14.9284" y2="9.1918" gradientUnits="userSpaceOnUse">
<stop stop-color="#576265"/>
<stop offset="0.172016" stop-color="#9EA1A1"/>
<stop offset="0.45741" stop-color="#848B8A"/>
<stop offset="0.553567" stop-color="#576265"/>
<stop offset="0.823421" stop-color="#576265"/>
<stop offset="0.925155" stop-color="#757A7B"/>
<stop offset="1" stop-color="#576265"/>
</linearGradient>
<linearGradient id="paint3_linear_67_120" x1="11.3952" y1="9.75" x2="10.1984" y2="6.62684" gradientUnits="userSpaceOnUse">
<stop stop-color="white" stop-opacity="0"/>
<stop offset="1" stop-color="white"/>
</linearGradient>
<linearGradient id="paint4_linear_67_120" x1="5.33165" y1="14.4461" x2="19.6246" y2="11.8705" gradientUnits="userSpaceOnUse">
<stop stop-color="#576265"/>
<stop offset="0.172016" stop-color="#9EA1A1"/>
<stop offset="0.45741" stop-color="#848B8A"/>
<stop offset="0.553567" stop-color="#576265"/>
<stop offset="0.823421" stop-color="#576265"/>
<stop offset="0.925155" stop-color="#757A7B"/>
<stop offset="1" stop-color="#576265"/>
</linearGradient>
<linearGradient id="paint5_linear_67_120" x1="10.4879" y1="12" x2="5.84209" y2="2.67364" gradientUnits="userSpaceOnUse">
<stop stop-color="white" stop-opacity="0"/>
<stop offset="1" stop-color="white"/>
</linearGradient>
<linearGradient id="paint6_linear_67_120" x1="1.33065" y1="15.0105" x2="23.7137" y2="9.76721" gradientUnits="userSpaceOnUse">
<stop stop-color="#576265"/>
<stop offset="0.172016" stop-color="#9EA1A1"/>
<stop offset="0.45741" stop-color="#848B8A"/>
<stop offset="0.553567" stop-color="#576265"/>
<stop offset="0.823421" stop-color="#576265"/>
<stop offset="0.925155" stop-color="#757A7B"/>
<stop offset="1" stop-color="#576265"/>
</linearGradient>
<linearGradient id="paint7_linear_67_120" x1="9.58065" y1="12" x2="4.79369" y2="-0.492629" gradientUnits="userSpaceOnUse">
<stop stop-color="white" stop-opacity="0"/>
<stop offset="1" stop-color="white"/>
</linearGradient>
<clipPath id="clip0_67_120">
<rect width="24" height="24" rx="5" fill="white"/>
</clipPath>
</defs>
</svg>
