<svg width="24" height="24" viewBox="0 0 24 24" fill="none" xmlns="http://www.w3.org/2000/svg">
<g clip-path="url(#clip0_71_139)">
<path d="M15 5.25H18.75V9" stroke="url(#paint0_linear_71_139)" stroke-linecap="round" stroke-linejoin="round"/>
<path d="M15 5.25H18.75V9" stroke="url(#paint1_linear_71_139)" stroke-linecap="round" stroke-linejoin="round" style="mix-blend-mode:overlay"/>
<path d="M15 5.25H18.75V9" stroke="#C1A875" stroke-linecap="round" stroke-linejoin="round" style="mix-blend-mode:color"/>
<path d="M14.25 9.75L18.75 5.25" stroke="url(#paint2_linear_71_139)" stroke-linecap="round" stroke-linejoin="round"/>
<path d="M14.25 9.75L18.75 5.25" stroke="url(#paint3_linear_71_139)" stroke-linecap="round" stroke-linejoin="round" style="mix-blend-mode:overlay"/>
<path d="M14.25 9.75L18.75 5.25" stroke="#C1A875" stroke-linecap="round" stroke-linejoin="round" style="mix-blend-mode:color"/>
<path d="M14.6616 14.3756C14.7654 14.3065 14.8849 14.2644 15.0091 14.2531C15.1334 14.2418 15.2585 14.2617 15.3731 14.3109L19.7944 16.2919C19.9434 16.3556 20.0677 16.4658 20.1489 16.6061C20.23 16.7463 20.2635 16.9091 20.2444 17.07C20.0987 18.1585 19.5627 19.157 18.736 19.8799C17.9093 20.6028 16.8482 21.0008 15.75 21C12.3685 21 9.12548 19.6567 6.73439 17.2656C4.3433 14.8745 3 11.6315 3 8.25C2.99916 7.15182 3.3972 6.0907 4.12009 5.264C4.84298 4.4373 5.84152 3.90128 6.93 3.75563C7.09091 3.73651 7.25368 3.77002 7.39395 3.85114C7.53422 3.93226 7.64444 4.05663 7.70813 4.20563L9.68906 8.63063C9.73774 8.74428 9.75756 8.8682 9.74676 8.99136C9.73596 9.11453 9.69489 9.23311 9.62719 9.33656L7.62375 11.7188C7.55269 11.826 7.51066 11.9498 7.50179 12.0782C7.49291 12.2065 7.51749 12.3349 7.57313 12.4509C8.34844 14.0381 9.98906 15.6591 11.5809 16.4269C11.6975 16.4823 11.8266 16.5063 11.9553 16.4966C12.084 16.4869 12.208 16.4438 12.315 16.3716L14.6616 14.3756Z" stroke="url(#paint4_linear_71_139)" stroke-linecap="round" stroke-linejoin="round"/>
<path d="M14.6616 14.3756C14.7654 14.3065 14.8849 14.2644 15.0091 14.2531C15.1334 14.2418 15.2585 14.2617 15.3731 14.3109L19.7944 16.2919C19.9434 16.3556 20.0677 16.4658 20.1489 16.6061C20.23 16.7463 20.2635 16.9091 20.2444 17.07C20.0987 18.1585 19.5627 19.157 18.736 19.8799C17.9093 20.6028 16.8482 21.0008 15.75 21C12.3685 21 9.12548 19.6567 6.73439 17.2656C4.3433 14.8745 3 11.6315 3 8.25C2.99916 7.15182 3.3972 6.0907 4.12009 5.264C4.84298 4.4373 5.84152 3.90128 6.93 3.75563C7.09091 3.73651 7.25368 3.77002 7.39395 3.85114C7.53422 3.93226 7.64444 4.05663 7.70813 4.20563L9.68906 8.63063C9.73774 8.74428 9.75756 8.8682 9.74676 8.99136C9.73596 9.11453 9.69489 9.23311 9.62719 9.33656L7.62375 11.7188C7.55269 11.826 7.51066 11.9498 7.50179 12.0782C7.49291 12.2065 7.51749 12.3349 7.57313 12.4509C8.34844 14.0381 9.98906 15.6591 11.5809 16.4269C11.6975 16.4823 11.8266 16.5063 11.9553 16.4966C12.084 16.4869 12.208 16.4438 12.315 16.3716L14.6616 14.3756Z" stroke="url(#paint5_linear_71_139)" stroke-linecap="round" stroke-linejoin="round" style="mix-blend-mode:overlay"/>
<path d="M14.6616 14.3756C14.7654 14.3065 14.8849 14.2644 15.0091 14.2531C15.1334 14.2418 15.2585 14.2617 15.3731 14.3109L19.7944 16.2919C19.9434 16.3556 20.0677 16.4658 20.1489 16.6061C20.23 16.7463 20.2635 16.9091 20.2444 17.07C20.0987 18.1585 19.5627 19.157 18.736 19.8799C17.9093 20.6028 16.8482 21.0008 15.75 21C12.3685 21 9.12548 19.6567 6.73439 17.2656C4.3433 14.8745 3 11.6315 3 8.25C2.99916 7.15182 3.3972 6.0907 4.12009 5.264C4.84298 4.4373 5.84152 3.90128 6.93 3.75563C7.09091 3.73651 7.25368 3.77002 7.39395 3.85114C7.53422 3.93226 7.64444 4.05663 7.70813 4.20563L9.68906 8.63063C9.73774 8.74428 9.75756 8.8682 9.74676 8.99136C9.73596 9.11453 9.69489 9.23311 9.62719 9.33656L7.62375 11.7188C7.55269 11.826 7.51066 11.9498 7.50179 12.0782C7.49291 12.2065 7.51749 12.3349 7.57313 12.4509C8.34844 14.0381 9.98906 15.6591 11.5809 16.4269C11.6975 16.4823 11.8266 16.5063 11.9553 16.4966C12.084 16.4869 12.208 16.4438 12.315 16.3716L14.6616 14.3756Z" stroke="#C1A875" stroke-linecap="round" stroke-linejoin="round" style="mix-blend-mode:color"/>
</g>
<rect x="0.5" y="0.5" width="23" height="23" rx="4.5" stroke="url(#paint6_linear_71_139)"/>
<rect x="0.5" y="0.5" width="23" height="23" rx="4.5" stroke="url(#paint7_linear_71_139)" style="mix-blend-mode:overlay"/>
<rect x="0.5" y="0.5" width="23" height="23" rx="4.5" stroke="#C1A875" style="mix-blend-mode:color"/>
<defs>
<linearGradient id="paint0_linear_71_139" x1="15.2079" y1="7.59539" x2="18.7053" y2="6.77613" gradientUnits="userSpaceOnUse">
<stop stop-color="#576265"/>
<stop offset="0.172016" stop-color="#9EA1A1"/>
<stop offset="0.45741" stop-color="#848B8A"/>
<stop offset="0.553567" stop-color="#576265"/>
<stop offset="0.823421" stop-color="#576265"/>
<stop offset="0.925155" stop-color="#757A7B"/>
<stop offset="1" stop-color="#576265"/>
</linearGradient>
<linearGradient id="paint1_linear_71_139" x1="16.497" y1="7.125" x2="15.749" y2="5.17303" gradientUnits="userSpaceOnUse">
<stop stop-color="white" stop-opacity="0"/>
<stop offset="1" stop-color="white"/>
</linearGradient>
<linearGradient id="paint2_linear_71_139" x1="14.4995" y1="8.06447" x2="18.6963" y2="7.08135" gradientUnits="userSpaceOnUse">
<stop stop-color="#576265"/>
<stop offset="0.172016" stop-color="#9EA1A1"/>
<stop offset="0.45741" stop-color="#848B8A"/>
<stop offset="0.553567" stop-color="#576265"/>
<stop offset="0.823421" stop-color="#576265"/>
<stop offset="0.925155" stop-color="#757A7B"/>
<stop offset="1" stop-color="#576265"/>
</linearGradient>
<linearGradient id="paint3_linear_71_139" x1="16.0464" y1="7.5" x2="15.1488" y2="5.15763" gradientUnits="userSpaceOnUse">
<stop stop-color="white" stop-opacity="0"/>
<stop offset="1" stop-color="white"/>
</linearGradient>
<linearGradient id="paint4_linear_71_139" x1="3.95638" y1="14.539" x2="20.0438" y2="10.7704" gradientUnits="userSpaceOnUse">
<stop stop-color="#576265"/>
<stop offset="0.172016" stop-color="#9EA1A1"/>
<stop offset="0.45741" stop-color="#848B8A"/>
<stop offset="0.553567" stop-color="#576265"/>
<stop offset="0.823421" stop-color="#576265"/>
<stop offset="0.925155" stop-color="#757A7B"/>
<stop offset="1" stop-color="#576265"/>
</linearGradient>
<linearGradient id="paint5_linear_71_139" x1="9.88593" y1="12.3752" x2="6.44539" y2="3.39632" gradientUnits="userSpaceOnUse">
<stop stop-color="white" stop-opacity="0"/>
<stop offset="1" stop-color="white"/>
</linearGradient>
<linearGradient id="paint6_linear_71_139" x1="1.33065" y1="15.0105" x2="23.7137" y2="9.76721" gradientUnits="userSpaceOnUse">
<stop stop-color="#576265"/>
<stop offset="0.172016" stop-color="#9EA1A1"/>
<stop offset="0.45741" stop-color="#848B8A"/>
<stop offset="0.553567" stop-color="#576265"/>
<stop offset="0.823421" stop-color="#576265"/>
<stop offset="0.925155" stop-color="#757A7B"/>
<stop offset="1" stop-color="#576265"/>
</linearGradient>
<linearGradient id="paint7_linear_71_139" x1="9.58065" y1="12" x2="4.79369" y2="-0.492629" gradientUnits="userSpaceOnUse">
<stop stop-color="white" stop-opacity="0"/>
<stop offset="1" stop-color="white"/>
</linearGradient>
<clipPath id="clip0_71_139">
<rect width="24" height="24" rx="5" fill="white"/>
</clipPath>
</defs>
</svg>
